<?xml version="1.0" encoding="UTF-8" standalone="no"?>
<svg width="24px" height="24px" viewBox="0 0 24 24" version="1.1" xmlns="http://www.w3.org/2000/svg" xmlns:xlink="http://www.w3.org/1999/xlink">
    <defs></defs>
    <g id="Page-1" stroke="none" stroke-width="1" fill="none" fill-rule="evenodd">
        <g id="Icons" transform="translate(-109.000000, -56.000000)" fill="#FFFFFF">
            <g id="Blood-Draw-icon" transform="translate(109.000000, 56.000000)">
                <path d="M8,8.468 L8,17.9999798 C8,20.2091299 9.79535615,22 12,22 C14.209139,22 16,20.2055487 16,17.9999798 L16,8.468 L16.4903505,8.468 C16.7718221,8.468 17,8.23728711 17,7.9620877 L17,6.4739123 C17,6.19450465 16.7723472,5.968 16.4903505,5.968 L7.50964952,5.968 C7.22817786,5.968 7,6.19871289 7,6.4739123 L7,7.9620877 C7,8.24149535 7.22765279,8.468 7.50964952,8.468 L8,8.468 Z M8.157456,2 C7.88640054,2 7.66666667,2.21403503 7.66666667,2.50468445 L7.66666667,3.49531555 C7.66666667,3.77404508 7.88090007,4 8.157456,4 L15.842544,4 C16.1135995,4 16.3333333,3.78596497 16.3333333,3.49531555 L16.3333333,2.50468445 C16.3333333,2.22595492 16.1190999,2 15.842544,2 L8.157456,2 Z M9.79761905,9 C9.38340549,9 9.04761905,9.3327179 9.04761905,9.7516253 L9.04761905,18.2483747 C9.04761905,18.6634859 9.38051766,19 9.79761905,19 C10.2118326,19 10.547619,18.6672821 10.547619,18.2483747 L10.547619,9.7516253 C10.547619,9.33651411 10.2147204,9 9.79761905,9 Z" id="Rectangle-47"></path>
            </g>
        </g>
    </g>
</svg>