<?xml version="1.0" encoding="UTF-8" standalone="no"?>
<svg width="24px" height="24px" viewBox="0 0 24 24" version="1.1" xmlns="http://www.w3.org/2000/svg" xmlns:xlink="http://www.w3.org/1999/xlink">
    <defs></defs>
    <g id="Page-1" stroke="none" stroke-width="1" fill="none" fill-rule="evenodd">
        <g id="Icons" transform="translate(-109.000000, -143.000000)" fill="#FFFFFF">
            <g id="Lab-Results-icon-2" transform="translate(109.000000, 143.000000)">
                <path d="M16,14.0029293 C16,13.4490268 16.4433532,13 17.0093689,13 L18.9906311,13 C19.5480902,13 20,13.4378814 20,14.0029293 L20,18.9970707 C20,19.5509732 19.5566468,20 18.9906311,20 L17.0093689,20 C16.4519098,20 16,19.5621186 16,18.9970707 L16,14.0029293 Z M10,7.00684547 C10,6.45078007 10.4433532,6 11.0093689,6 L12.9906311,6 C13.5480902,6 14,6.44994876 14,7.00684547 L14,18.9931545 C14,19.5492199 13.5566468,20 12.9906311,20 L11.0093689,20 C10.4519098,20 10,19.5500512 10,18.9931545 L10,7.00684547 Z M4,11.9975446 C4,11.446616 4.44335318,11 5.0093689,11 L6.9906311,11 C7.54809015,11 8,11.4463114 8,11.9975446 L8,19.0024554 C8,19.553384 7.55664682,20 6.9906311,20 L5.0093689,20 C4.45190985,20 4,19.5536886 4,19.0024554 L4,11.9975446 Z" id="Rectangle-211-Copy-2"></path>
            </g>
        </g>
    </g>
</svg>