<svg xmlns="http://www.w3.org/2000/svg" width="24" height="24" viewBox="0 0 24 24">
  <path fill="#FFF" fill-rule="evenodd" d="M12.892 8.532c-.586 0-1.06-.48-1.06-1.07 0-.593.474-1.072 1.06-1.072.586 0 1.06.48 1.06 1.07 0 .592-.474 1.072-1.06 1.072m3.17 0c-.587 0-1.062-.48-1.062-1.07 0-.593.475-1.072 1.06-1.072.587 0 1.062.48 1.062 1.07 0 .592-.475 1.072-1.06 1.072m3.168 0c-.586 0-1.06-.48-1.06-1.07 0-.593.474-1.072 1.06-1.072.586 0 1.06.48 1.06 1.07 0 .592-.474 1.072-1.06 1.072m-3.26-6.534c-3.323 0-6.018 2.373-6.018 5.3 0 1.24.483 2.38 1.292 3.282L9.77 13.116l4.043-.87c.67.228 1.398.352 2.158.352 3.326 0 6.02-2.373 6.02-5.3 0-2.927-2.694-5.3-6.02-5.3zM5.037 4.388C3.98 4.494 2.393 6.4 2.016 7.952c.173 1.258.533 2.574 1.344 4.213.78 1.574 2.153 4.092 3.95 5.824 2.48 2.387 5.44 3.81 5.84 4.012 2.233-.037 3.735-1.35 4.144-2.186.126-.99-1.86-3.388-3.6-4.078-.097-.04-.196-.057-.296-.057-.633 0-1.313.74-1.847 1.808-1.893-.123-2.712-1.4-3.83-2.724-1.115-1.325-1.985-3.198-1.7-4.126 1.01-.228 1.895-.75 2.19-1.8-.024-1.13-1.774-4.19-3.174-4.45z"/>
</svg>
