<svg xmlns="http://www.w3.org/2000/svg">
    <symbol id="blood-draw-icon" viewBox="0 0 24 24">
      <path fill="#FFF" fill-rule="evenodd" d="M8 8.468V18c0 2.21 1.795 4 4 4 2.21 0 4-1.794 4-4V8.468h.49c.282 0 .51-.23.51-.506V6.474c0-.28-.228-.506-.51-.506H7.51c-.282 0-.51.23-.51.506v1.488c0 .28.228.506.51.506H8zM8.157 2c-.27 0-.49.214-.49.505v.99c0 .28.214.505.49.505h7.686c.27 0 .49-.214.49-.505v-.99c0-.28-.214-.505-.49-.505H8.157zm1.64 7c-.414 0-.75.333-.75.752v8.496c0 .415.334.752.75.752.415 0 .75-.333.75-.752V9.752c0-.415-.332-.752-.75-.752z" />
    </symbol>

  <symbol id="consultations-icon" viewBox="0 0 24 24">
    <path fill="#fff" fill-rule="evenodd" d="M12.892 8.532c-.586 0-1.06-.48-1.06-1.07 0-.593.474-1.072 1.06-1.072.586 0 1.06.48 1.06 1.07 0 .592-.474 1.072-1.06 1.072m3.17 0c-.587 0-1.062-.48-1.062-1.07 0-.593.475-1.072 1.06-1.072.587 0 1.062.48 1.062 1.07 0 .592-.475 1.072-1.06 1.072m3.168 0c-.586 0-1.06-.48-1.06-1.07 0-.593.474-1.072 1.06-1.072.586 0 1.06.48 1.06 1.07 0 .592-.474 1.072-1.06 1.072m-3.26-6.534c-3.323 0-6.018 2.373-6.018 5.3 0 1.24.483 2.38 1.292 3.282L9.77 13.116l4.043-.87c.67.228 1.398.352 2.158.352 3.326 0 6.02-2.373 6.02-5.3 0-2.927-2.694-5.3-6.02-5.3zM5.037 4.388C3.98 4.494 2.393 6.4 2.016 7.952c.173 1.258.533 2.574 1.344 4.213.78 1.574 2.153 4.092 3.95 5.824 2.48 2.387 5.44 3.81 5.84 4.012 2.233-.037 3.735-1.35 4.144-2.186.126-.99-1.86-3.388-3.6-4.078-.097-.04-.196-.057-.296-.057-.633 0-1.313.74-1.847 1.808-1.893-.123-2.712-1.4-3.83-2.724-1.115-1.325-1.985-3.198-1.7-4.126 1.01-.228 1.895-.75 2.19-1.8-.024-1.13-1.774-4.19-3.174-4.45z" />
  </symbol>
</svg>
