<svg xmlns="http://www.w3.org/2000/svg" width="24" height="24" viewBox="0 0 24 24">
  <path fill="#FFF" fill-rule="evenodd" d="M9.134 18.122h6.44c-.35.276-.575.703-.575 1.182 0 .83.672 1.5 1.5 1.5s1.5-.67 1.5-1.5c0-.48-.225-.906-.575-1.18h.314c.55 0 1-.448 1-1 0-.553-.45-1-1-1H9.21c-.396 0-.477-.12-.33-.487l.24-.605c.21-.528.345-.863.438-1.095.136.043.274.067.41.067h7.194c.553 0 1.198-.407 1.436-.902l2.98-6.196c.24-.498-.01-.902-.566-.902H7.627c-.027-.047-.058-.092-.094-.136l-.77-.94c-.453-.552-1.298-.95-2.02-.95H3c-.552 0-1 .448-1 1s.448 1 1 1h1.744c.123 0 .4.13.473.22l.603.735 2.333 5.245c-.06.076-.11.16-.15.256l-.74 1.857-.24.606c-.495 1.238-.057 2.402.93 2.93-.706.122-1.243.737-1.243 1.478 0 .83.67 1.5 1.5 1.5.828 0 1.5-.67 1.5-1.5 0-.48-.226-.907-.576-1.182z"/>
</svg>
