<?xml version="1.0" encoding="UTF-8" standalone="no"?>
<svg width="24px" height="24px" viewBox="0 0 24 24" version="1.1" xmlns="http://www.w3.org/2000/svg" xmlns:xlink="http://www.w3.org/1999/xlink">
    <defs></defs>
    <g id="Page-1" stroke="none" stroke-width="1" fill="none" fill-rule="evenodd">
        <g id="Icons" transform="translate(-228.000000, -187.000000)" fill="#FFFFFF">
            <g id="Messages-icon-2" transform="translate(228.000000, 187.000000)">
                <path d="M9,16 L5.49826741,16 C5.21990657,16 5,15.7755913 5,15.4987692 L5,5.50123084 C5,5.22975063 5.22308192,5 5.49826741,5 L18.5017326,5 C18.7800934,5 19,5.22440869 19,5.50123084 L19,15.4987692 C19,15.7702494 18.7769181,16 18.5017326,16 L15,16 L15,16.4991673 C15,17.3214545 14.3290647,18 13.501424,18 L10.498576,18 C9.66502976,18 9,17.3280543 9,16.4991673 L9,16 Z M3.99339768,3 C3.44475929,3 3,3.44494629 3,3.99339768 L3,20.0066023 C3,20.5552407 3.44494629,21 3.99339768,21 L20.0066023,21 C20.5552407,21 21,20.5550537 21,20.0066023 L21,3.99339768 C21,3.44475929 20.5550537,3 20.0066023,3 L3.99339768,3 Z" id="Inbox"></path>
            </g>
        </g>
    </g>
</svg>