<?xml version="1.0" encoding="UTF-8" standalone="no"?>
<svg width="24px" height="24px" viewBox="0 0 24 24" version="1.1" xmlns="http://www.w3.org/2000/svg" xmlns:xlink="http://www.w3.org/1999/xlink">
    <defs></defs>
    <g id="Page-1" stroke="none" stroke-width="1" fill="none" fill-rule="evenodd">
        <g id="Icons" transform="translate(-228.000000, -99.000000)" fill="#FFFFFF">
            <g id="My-Products-icon" transform="translate(228.000000, 99.000000)">
                <path d="M4,9.468 L4,19.4615632 C4,19.7412605 4.22618103,19.968 4.4963932,19.968 L19.5036068,19.968 C19.7777572,19.968 20,19.7486926 20,19.4615632 L20,9.468 L4,9.468 Z M9.99077797,11 C9.44358641,11 9,11.4438648 9,12 C9,12.5522847 9.45097518,13 9.99077797,13 L14.009222,13 C14.5564136,13 15,12.5561352 15,12 C15,11.4477153 14.5490248,11 14.009222,11 L9.99077797,11 Z M3.50020972,4.968 C3.22395152,4.968 3,5.1837526 3,5.46338898 L3,7.47261102 C3,7.7462068 3.22758651,7.968 3.50020972,7.968 L20.4997903,7.968 C20.7760485,7.968 21,7.7522474 21,7.47261102 L21,5.46338898 C21,5.1897932 20.7724135,4.968 20.4997903,4.968 L3.50020972,4.968 Z" id="Rectangle-71"></path>
            </g>
        </g>
    </g>
</svg>