<?xml version="1.0" encoding="UTF-8" standalone="no"?>
<svg width="28px" height="19px" viewBox="0 0 28 19" version="1.1" xmlns="http://www.w3.org/2000/svg" xmlns:xlink="http://www.w3.org/1999/xlink">
    <defs></defs>
    <g id="Page-1" stroke="none" stroke-width="1" fill="none" fill-rule="evenodd">
        <g id="Collapse-nav-4" transform="translate(-20.000000, -13.000000)" fill="#504364">
            <g id="Menu-button-2">
                <g id="menu-icon-+-MENU" transform="translate(16.000000, 13.000000)">
                    <g id="menu-icon" transform="translate(4.000000, 0.000000)">
                        <path d="M1.48972977,11 L26.5102702,11 C27.3330253,11 28,10.3284271 28,9.5 C28,8.67157288 27.3330253,8 26.5102702,8 L1.48972977,8 C0.666974735,8 0,8.67157288 0,9.5 C0,10.3284271 0.666974735,11 1.48972977,11 L1.48972977,11 Z" id="Shape"></path>
                        <path d="M1.48972977,19 L26.5102702,19 C27.3330253,19 28,18.3284271 28,17.5 C28,16.6715729 27.3330253,16 26.5102702,16 L1.48972977,16 C0.666974735,16 0,16.6715729 0,17.5 C0,18.3284271 0.666974735,19 1.48972977,19 L1.48972977,19 Z" id="Shape"></path>
                        <path d="M1.48972977,3 L26.5102702,3 C27.3330253,3 28,2.32842712 28,1.5 C28,0.671572875 27.3330253,0 26.5102702,0 L1.48972977,0 C0.666974735,0 0,0.671572875 0,1.5 C0,2.32842712 0.666974735,3 1.48972977,3 L1.48972977,3 Z" id="Shape"></path>
                    </g>
                </g>
            </g>
        </g>
    </g>
</svg>