<?xml version="1.0" encoding="UTF-8" standalone="no"?>
<svg width="24px" height="24px" viewBox="0 0 24 24" version="1.1" xmlns="http://www.w3.org/2000/svg" xmlns:xlink="http://www.w3.org/1999/xlink">
    <defs></defs>
    <g id="Page-1" stroke="none" stroke-width="1" fill="none" fill-rule="evenodd">
        <g id="Icons" transform="translate(-228.000000, -143.000000)" fill="#FFFFFF">
            <g id="Purchase-icon-2" transform="translate(228.000000, 143.000000)">
                <path d="M9.13360333,18.1224297 C9.15871048,18.1230358 9.18397005,18.1233408 9.20937939,18.1233408 L15.5750182,18.1233409 L15.5750182,18.1233409 C15.2249294,18.3979371 15,18.8248382 15,19.3042744 C15,20.1327016 15.6715729,20.8042744 16.5,20.8042744 C17.3284271,20.8042744 18,20.1327016 18,19.3042744 C18,18.8248383 17.7750706,18.3979371 17.4249818,18.123341 L17.7391497,18.123341 C18.2914345,18.123341 18.7391497,17.6756257 18.7391497,17.123341 C18.7391497,16.5710562 18.2914345,16.123341 17.7391497,16.123341 L9.20937939,16.1233408 C8.81366596,16.1233408 8.73282328,16.0043297 8.87926203,15.6372482 L9.12083311,15.0316962 C9.33145066,14.5037361 9.4648621,14.1693105 9.55755028,13.9369668 L9.55755028,13.9369668 C9.69356945,13.9803631 9.83220846,14.0042714 9.96688177,14.0042714 L17.1620829,14.0042714 C17.7154635,14.0042714 18.3602501,13.5965518 18.5981563,13.1021206 L21.5793493,6.90642213 C21.8190902,6.40817803 21.5692477,6.00427138 21.0120095,6.00427138 L7.62699886,6.00427138 L7.62699886,6.00427138 C7.59990389,5.95718037 7.56859939,5.9116771 7.53303506,5.86826815 L6.76360692,4.92912314 C6.31041199,4.37596459 5.46470608,3.97800977 4.74390291,3.97800977 L3,3.97800977 C2.44771525,3.97800977 2,4.42572502 2,4.97800977 C2,5.53029452 2.44771525,5.97800977 3,5.97800977 L4.74390291,5.97800977 C4.86704372,5.97800977 5.14432079,6.10848509 5.2165297,6.19662149 L5.81965628,6.93278292 L8.1527299,12.1782638 C8.09214459,12.2537679 8.04158633,12.3394168 8.00385082,12.4340093 C7.83775592,12.8503634 7.83775592,12.8503634 7.26319323,14.2906334 L7.02162216,14.8961853 C6.5278825,16.1338543 6.96625125,17.2978185 7.95324522,17.826126 C7.24703697,17.947829 6.70978451,18.5633107 6.70978451,19.3042744 C6.70978451,20.1327016 7.38135739,20.8042744 8.20978451,20.8042744 C9.03821164,20.8042744 9.70978451,20.1327016 9.70978451,19.3042744 C9.70978451,18.8243076 9.48435694,18.3969921 9.13360333,18.1224297 Z" id="Rectangle-92"></path>
            </g>
        </g>
    </g>
</svg>