<?xml version="1.0" encoding="UTF-8" standalone="no"?>
<svg width="24px" height="24px" viewBox="0 0 24 24" version="1.1" xmlns="http://www.w3.org/2000/svg" xmlns:xlink="http://www.w3.org/1999/xlink">
    <defs></defs>
    <g id="Page-1" stroke="none" stroke-width="1" fill="none" fill-rule="evenodd">
        <g id="Icons" transform="translate(-228.000000, -231.000000)" fill="#FFFFFF">
            <g id="Settings-icon-2" transform="translate(228.000000, 231.000000)">
                <path d="M5.5057352,9.64712154 C5.45279086,9.77642639 5.30632185,9.92980944 5.18747568,9.98554395 L3.22239532,10.9070947 C3.09956978,10.9646954 3,11.1176939 3,11.253836 L3,12.746164 C3,12.8800632 3.10246811,13.0349412 3.22007355,13.0881168 L5.16463878,13.9673567 C5.28618204,14.0223128 5.42874987,14.1782442 5.47671934,14.2995695 L5.76989523,15.0410759 C5.82070931,15.1695959 5.8219925,15.3741843 5.76944886,15.5063703 L5.02554691,17.3778314 C4.9744863,17.5062864 5.00866393,17.6932493 5.10544597,17.7993279 L6.16632728,18.9621148 C6.26151492,19.0664459 6.44332765,19.1057794 6.5634349,19.053852 L8.5493667,18.1952515 C8.67349554,18.1415855 8.88297871,18.1502087 9.00155493,18.2069912 L9.72625938,18.5540297 C9.8518672,18.6141794 9.99900739,18.7633608 10.0586673,18.8955707 L10.9033197,20.7673696 C10.9612957,20.8958478 11.1149092,21 11.2514491,21 L12.7481385,21 C12.882429,21 13.0366079,20.8951747 13.0886171,20.7748639 L13.948571,18.7855664 C14.0023216,18.6612271 14.1455029,18.520137 14.2747971,18.4678351 L14.8963414,18.2164087 C15.0227605,18.1652698 15.2331167,18.1679514 15.3569259,18.2186097 L17.4040667,19.0562268 C17.5320214,19.1085813 17.7180828,19.0723213 17.8235263,18.9715292 L18.9793516,17.8666906 C19.083058,17.7675589 19.1207505,17.5790725 19.0675209,17.4549753 L18.1873882,15.4030715 C18.1323763,15.2748191 18.1271744,15.0760928 18.1867865,14.9327035 L18.4156469,14.382209 C18.4703264,14.2506843 18.6214452,14.0933084 18.7440136,14.0350566 L20.7706394,13.0718829 C20.8973117,13.0116806 21,12.8565731 21,12.720431 L21,11.228103 C21,11.0942038 20.8942711,10.938202 20.7729231,10.8837365 L18.7664761,9.98316918 C18.641065,9.92688004 18.4977215,9.77936711 18.4436225,9.64712154 L18.1835571,9.01138932 C18.1306611,8.88208447 18.1287712,8.67245505 18.1758174,8.55216504 L18.9537108,6.56321146 C19.0023323,6.43889374 18.9661552,6.26079618 18.8693448,6.16177586 L17.8081522,5.07635955 C17.7129366,4.97897051 17.5322,4.94194757 17.3958712,4.99714636 L15.4657561,5.77863933 C15.3332752,5.83228014 15.119305,5.82838598 15.0032164,5.77677712 L14.2937155,5.4613583 C14.1707428,5.40668902 14.0257388,5.26086269 13.9660789,5.12722099 L13.1214265,3.23514982 C13.0634505,3.10528016 12.9057791,3 12.7640423,3 L11.2103866,3 C11.0709847,3 10.9118825,3.10440835 10.8589784,3.22424067 L9.98422671,5.20562645 C9.92955116,5.32947115 9.78287959,5.46844741 9.6500282,5.51852589 L9.01138371,5.75926361 C8.88148652,5.8082285 8.66930317,5.80940367 8.54663309,5.7651947 L6.51832578,5.0342147 C6.39154829,4.98852547 6.21453488,5.02188759 6.10825412,5.12267192 L5.08845555,6.08973052 C4.98875671,6.18427333 4.94892562,6.36903969 4.99597187,6.49313687 L5.77386522,8.54504073 C5.82248673,8.67329309 5.82018648,8.87914375 5.76603805,9.01138932 L5.5057352,9.64712154 Z M14.9243865,11.9997891 C14.9243865,13.6517612 13.6153106,14.9911411 11.9997938,14.9911411 C10.3846894,14.9911411 9.07520106,13.6517612 9.07520106,11.9997891 C9.07520106,10.3478169 10.3846894,9.00843704 11.9997938,9.00843704 C13.6153106,9.00843704 14.9243865,10.3478169 14.9243865,11.9997891 L14.9243865,11.9997891 Z" id="settings-icon-4"></path>
            </g>
        </g>
    </g>
</svg>