<?xml version="1.0" encoding="UTF-8" standalone="no"?>
<svg width="30px" height="18px" viewBox="0 0 30 18" version="1.1" xmlns="http://www.w3.org/2000/svg" xmlns:xlink="http://www.w3.org/1999/xlink">
    <defs></defs>
    <g id="Page-1" stroke="none" stroke-width="1" fill="none" fill-rule="evenodd" opacity="0.699999928">
        <g id="no-headings" transform="translate(-15.000000, -995.000000)" fill="#FFFFFF">
            <g id="nav-footer-2" transform="translate(0.000000, 982.000000)">
                <g id="Rectangle-170-+-Path" transform="translate(0.000000, 1.000000)">
                    <path d="M44.9846437,16.9358111 C44.9822237,16.8996479 44.9801062,16.8690483 44.9785937,16.8384487 L44.9755687,16.7633405 C44.9740562,16.7135775 44.9722412,16.6684508 44.9680062,16.6239423 C44.7266118,13.988357 42.5891518,12 39.995523,12 C38.5982787,12 37.2533669,12.6092106 36.3059392,13.6718518 C36.1074996,13.8770857 35.8667102,14.1311552 35.5902258,14.4257152 C35.5209535,14.4992779 35.5003835,14.6074583 35.5372885,14.7023481 C35.7623479,15.2818863 35.9048251,15.8836788 35.9607875,16.491653 C35.9674424,16.5649066 35.9710724,16.6384693 35.9734924,16.7120321 L35.9759124,16.772304 L35.9792399,16.8279397 C35.9855924,16.9314839 36.0515373,17.0211191 36.1468245,17.0566641 C36.1752595,17.0671731 36.2046019,17.0721185 36.2339443,17.0721185 C36.3026117,17.0721185 36.370069,17.0436825 36.4190739,16.9911377 L36.8525554,16.5247253 C37.3129593,16.0295679 37.6871509,15.6330092 37.9651477,15.3455582 L37.9978177,15.3115586 L38.0304876,15.2753955 C38.5435264,14.6992572 39.2416947,14.3821339 39.995523,14.3821339 C41.3646347,14.3821339 42.503847,15.4333389 42.6451142,16.8270124 L42.6457192,16.8449395 C42.6469292,16.8869753 42.6487442,16.9287021 42.6505592,16.9543563 C42.6520717,16.9976285 42.6547942,17.0402825 42.6578192,17.0823184 L42.6602392,17.1215724 C42.6593317,17.847927 42.3822423,18.5307003 41.8800935,19.0444029 C40.7502587,20.198534 37.1862121,24.1359939 35.1624918,26.380275 C34.4945734,25.6397024 33.607343,24.6568056 32.6871402,23.6430001 C32.6390428,23.5898371 32.5715855,23.5598556 32.5008006,23.5595466 L32.4998931,23.5595466 C32.4294108,23.5595466 32.3619534,23.5892189 32.3138561,23.6417637 C31.921817,24.0683038 31.499528,24.530389 31.0666515,25.0054558 C30.9752967,25.1052909 30.9752967,25.2604526 31.0660465,25.3605968 C32.7095251,27.1718469 34.2498515,28.8844982 34.5420658,29.2093487 C34.5487208,29.2167668 34.5556783,29.2238758 34.5632408,29.2303666 L34.6074057,29.2696207 C34.7565378,29.4096371 34.9555823,29.4899998 35.1624918,29.4899998 C35.3690989,29.4899998 35.5684459,29.4096371 35.723628,29.2640571 L35.7820104,29.2090396 C35.7874554,29.2040943 35.7925979,29.1988398 35.7974378,29.1935853 C36.4381313,28.4808306 42.0994055,22.1887455 43.5284121,20.7289274 C44.4737224,19.7630303 44.9931137,18.4784646 44.9912987,17.1122998 L44.9912987,17.1073544 C44.9916012,17.1017908 44.9919037,17.0962273 44.9919037,17.0919001 C44.9912987,17.0393553 44.9879712,16.9877377 44.9846437,16.9358111 Z M34.6452181,16.8387578 C34.6412856,16.7670496 34.6412856,16.6953414 34.6346306,16.6236332 C34.3968661,14.0303928 32.2627337,12 29.6621473,12 C28.1986558,12 26.8864139,12.6472283 25.9725635,13.6718518 C25.6591742,13.9960842 25.2680427,14.4118062 24.8291162,14.8837822 C24.3895847,14.410879 23.9975457,13.9951569 23.6844589,13.6706155 C22.7706086,12.6466101 21.4586691,12 19.9957826,12 C17.3958012,12 15.2619712,14.0294656 15.0236018,16.6220877 C15.0151318,16.7138866 15.0139218,16.8059945 15.0099893,16.8981025 C15.0075693,16.967338 15.0000069,17.035028 15.0000069,17.1045726 C14.9978894,18.419738 15.4855182,19.729958 16.4631959,20.7289274 C17.9941448,22.2932169 24.2622325,29.2696207 24.2622325,29.2696207 C24.4159022,29.4031463 24.6122242,29.4899998 24.8291162,29.4899998 C25.0460082,29.4899998 25.2420277,29.4031463 25.3899499,29.2640571 C25.3953949,29.2696207 31.6640876,22.2932169 33.1950365,20.7289274 C34.1721092,19.7305762 34.6594355,18.4209744 34.657923,17.1122998 C34.6582255,17.0146283 34.6494531,16.9271567 34.6452181,16.8387578 Z M31.5467179,19.0444029 C30.3917756,20.2244973 26.7245767,24.2781739 24.8291162,26.380275 C22.9336557,24.2781739 19.2667593,20.2244973 18.1115145,19.0444029 C17.6132982,18.5353366 17.3371164,17.8602905 17.3316714,17.1367177 C17.3349989,17.0878819 17.3377214,17.0393553 17.3392339,17.0010285 L17.3425613,16.9049024 C17.3434688,16.8826481 17.3440738,16.8600848 17.3446788,16.8449395 C17.4741485,15.4410661 18.6136633,14.3821339 19.9957826,14.3821339 C20.7493083,14.3821339 21.4471742,14.6992572 21.9617255,15.2757045 L21.9925804,15.3100132 L22.0243428,15.3430855 C22.3189771,15.6487726 22.6940762,16.0459495 23.1381452,16.5241071 L24.8282087,18.3430844 L26.5191797,16.5247253 C26.9741386,16.0354405 27.3483303,15.6385727 27.6317721,15.3455582 L27.664442,15.3115586 L27.6955994,15.2763227 C28.2098482,14.6995663 28.9086216,14.3821339 29.6621473,14.3821339 C31.0354941,14.3821339 32.1695639,15.4271572 32.3117386,16.8270124 L32.3123436,16.8449395 C32.3135536,16.8869753 32.3150661,16.9290112 32.3165786,16.9546654 C32.318696,16.999483 32.321721,17.0436825 32.3244435,17.088191 L32.326561,17.1218815 C32.325956,17.8482361 32.0488667,18.5310094 31.5467179,19.0444029 Z" id="wellnessfx-brandmark"></path>
                </g>
            </g>
        </g>
    </g>
</svg>