<svg xmlns="http://www.w3.org/2000/svg" width="24" height="24" viewBox="0 0 24 24">
  <path fill="#FFF" fill-rule="evenodd" d="M16 14.003c0-.554.443-1.003 1.01-1.003h1.98c.558 0 1.01.438 1.01 1.003v4.994C20 19.55 19.557 20 18.99 20h-1.98c-.558 0-1.01-.438-1.01-1.003v-4.994zm-6-6.996C10 6.45 10.443 6 11.01 6h1.98C13.55 6 14 6.45 14 7.007v11.986C14 19.55 13.557 20 12.99 20h-1.98c-.558 0-1.01-.45-1.01-1.007V7.007zm-6 4.99c0-.55.443-.997 1.01-.997h1.98c.558 0 1.01.446 1.01.998v7.004c0 .55-.443.998-1.01.998H5.01C4.45 20 4 19.554 4 19.002v-7.004z"/>
</svg>
