<svg xmlns="http://www.w3.org/2000/svg" width="30" height="18" viewBox="0 0 30 18">
  <path fill="#FFF" fill-rule="evenodd" d="M29.985 4.936l-.006-.098-.004-.075c-.002-.05-.004-.095-.008-.14C29.728 1.99 27.588 0 24.996 0c-1.398 0-2.743.61-3.69 1.672-.2.205-.44.46-.716.754-.07.073-.09.18-.053.276.225.58.368 1.182.424 1.79.007.073.01.146.013.22l.003.06.003.056c.006.103.072.193.167.23.028.01.058.014.087.014.07 0 .136-.028.185-.08l.433-.467c.46-.495.834-.892 1.112-1.18l.033-.033.032-.037c.514-.576 1.212-.893 1.966-.893 1.37 0 2.508 1.05 2.65 2.445v.018c0 .042.003.084.005.11l.008.127.002.04c0 .726-.278 1.41-.78 1.922-1.13 1.155-4.694 5.092-6.718 7.336-.667-.74-1.555-1.723-2.475-2.737-.048-.053-.115-.083-.186-.083-.07 0-.138.03-.186.082-.392.426-.814.888-1.247 1.363-.092.1-.092.255 0 .356 1.643 1.812 3.183 3.524 3.475 3.85l.02.02.045.04c.15.14.35.22.555.22.207 0 .406-.08.562-.226l.058-.055.015-.016c.64-.713 6.302-7.005 7.73-8.465.947-.967 1.466-2.252 1.464-3.618v-.005c.002-.005.002-.01.002-.015 0-.053-.004-.104-.007-.156zm-10.34-.097c-.004-.073-.004-.145-.01-.216C19.397 2.03 17.263 0 14.662 0c-1.463 0-2.776.647-3.69 1.672-.313.324-.704.74-1.143 1.212-.44-.473-.832-.89-1.146-1.213C7.77.648 6.46 0 4.996 0 2.396 0 .262 2.03.024 4.622c-.01.092-.01.184-.014.276-.002.07-.01.137-.01.207C-.002 6.42.486 7.73 1.463 8.73c1.53 1.563 7.8 8.54 7.8 8.54.153.133.35.22.566.22.216 0 .412-.087.56-.226.005.006 6.274-6.97 7.805-8.535.977-1 1.464-2.31 1.463-3.618 0-.097-.01-.185-.013-.273zm-3.098 2.204c-1.155 1.18-4.822 5.234-6.718 7.336-1.896-2.102-5.563-6.156-6.718-7.336-.5-.51-.775-1.184-.78-1.907L2.34 5l.003-.095c0-.022 0-.045.002-.06.13-1.404 1.27-2.463 2.65-2.463.754 0 1.452.317 1.967.894l.03.034.032.033c.295.306.67.703 1.114 1.18l1.69 1.82 1.69-1.818c.456-.49.83-.886 1.114-1.18l.032-.033.032-.036c.514-.576 1.213-.894 1.966-.894 1.373 0 2.508 1.045 2.65 2.445v.018l.005.11.007.133.003.034c0 .726-.278 1.41-.78 1.922z"/>
</svg>
