<svg xmlns="http://www.w3.org/2000/svg" width="24" height="24" viewBox="0 0 24 24">
  <path fill="#FFF" fill-rule="evenodd" d="M8 8.468V18c0 2.21 1.795 4 4 4 2.21 0 4-1.794 4-4V8.468h.49c.282 0 .51-.23.51-.506V6.474c0-.28-.228-.506-.51-.506H7.51c-.282 0-.51.23-.51.506v1.488c0 .28.228.506.51.506H8zM8.157 2c-.27 0-.49.214-.49.505v.99c0 .28.214.505.49.505h7.686c.27 0 .49-.214.49-.505v-.99c0-.28-.214-.505-.49-.505H8.157zm1.64 7c-.414 0-.75.333-.75.752v8.496c0 .415.334.752.75.752.415 0 .75-.333.75-.752V9.752c0-.415-.332-.752-.75-.752z"/>
</svg>
