<svg xmlns="http://www.w3.org/2000/svg" width="24" height="24" viewBox="0 0 24 24">
  <path fill="#FFF" fill-rule="evenodd" d="M3.75 6v12.94c0 .555.44 1.004 1.007 1.004h14.486c.556 0 1.007-.446 1.007-1.004V6H3.75zm-2-1.1v14.04c0 1.66 1.34 3.004 3.007 3.004h14.486c1.66 0 3.007-1.34 3.007-3.004V4.9c0-1.662-1.34-3.005-3.007-3.005H4.757c-1.66 0-3.007 1.34-3.007 3.004zm7.586 11.123c.706 1 2.05 1.043 2.8.08l4.815-6.182c.34-.435.263-1.063-.173-1.402-.436-.34-1.064-.262-1.403.174L10.85 14.65l-1.92-2.673c-.318-.45-.942-.56-1.393-.24-.452.318-.56.94-.24 1.393l2.04 2.893z"/>
</svg>
