<svg xmlns="http://www.w3.org/2000/svg" width="24" height="24" viewBox="0 0 24 24">
  <path fill="#FFF" fill-rule="evenodd" d="M5.506 9.647c-.053.13-.2.283-.32.34l-1.964.92c-.122.058-.222.21-.222.347v1.492c0 .134.102.29.22.342l1.945.88c.12.054.264.21.312.332l.293.74c.05.13.052.334 0 .466l-.744 1.872c-.052.128-.017.315.08.42l1.06 1.164c.096.104.277.144.397.092l1.986-.86c.123-.052.333-.044.452.013l.724.347c.126.06.273.21.333.342l.843 1.87c.058.13.212.234.348.234h1.498c.134 0 .29-.105.34-.225l.86-1.99c.054-.124.198-.265.327-.317l.62-.252c.128-.05.338-.048.462.003l2.047.836c.128.053.314.016.42-.084l1.155-1.105c.103-.1.14-.288.088-.412l-.88-2.052c-.056-.128-.06-.327 0-.47l.228-.55c.054-.132.205-.29.328-.348l2.027-.963c.127-.06.23-.215.23-.352v-1.492c0-.134-.106-.29-.227-.344l-2.007-.9c-.125-.057-.268-.205-.322-.337l-.26-.636c-.053-.128-.055-.338-.008-.458l.778-1.99c.048-.123.012-.3-.085-.4l-1.062-1.086c-.095-.097-.276-.134-.412-.08l-1.93.783c-.133.052-.347.048-.463-.003l-.71-.316c-.122-.053-.267-.2-.327-.333l-.845-1.892c-.057-.13-.214-.235-.356-.235H11.21c-.14 0-.298.104-.35.224l-.876 1.982c-.054.123-.2.262-.334.313l-.64.24c-.13.048-.34.05-.463.005l-2.03-.73c-.125-.046-.302-.013-.41.088l-1.02.967c-.098.094-.138.28-.09.403l.777 2.052c.048.128.046.334-.008.466l-.26.637zM14.924 12c0 1.652-1.31 2.99-2.924 2.99-1.615 0-2.925-1.338-2.925-2.99 0-1.652 1.31-2.992 2.925-2.992 1.615 0 2.924 1.34 2.924 2.992z"/>
</svg>
