<svg xmlns="http://www.w3.org/2000/svg" width="24" height="24" viewBox="0 0 24 24">
  <path fill="#FFF" fill-rule="evenodd" d="M7.142 13L9.7 15.375c.4.372.4.974 0 1.346-.4.373-1.05.373-1.45 0l-3.654-3.39c-.796-.74-.795-1.95.005-2.693L8.22 7.28c.4-.373 1.05-.373 1.45 0 .4.37.4.973 0 1.345L7.11 11h7.892c.56.026 1.017.472.998 1 .024.577-.43 1.026-1 1H7.142zM19 20c1.13 0 2-.88 2-2V6c0-1.117-.868-2-2-2h-4.022c-.54 0-.978.442-.978 1 0 .53.502 1 1 1h4v12h-4c-.623 0-1 .377-1 1s.492 1 .978 1H19z"/>
</svg>
