<?xml version="1.0" encoding="UTF-8" standalone="no"?>
<svg width="24px" height="24px" viewBox="0 0 24 24" version="1.1" xmlns="http://www.w3.org/2000/svg" xmlns:xlink="http://www.w3.org/1999/xlink">
    <defs></defs>
    <g id="Page-1" stroke="none" stroke-width="1" fill="none" fill-rule="evenodd">
        <g id="Icons" transform="translate(-109.000000, -187.000000)" fill="#FFFFFF">
            <g id="Consultations-icon-2" transform="translate(109.000000, 187.000000)">
                <path d="M12.8923087,8.5317736 C12.3064007,8.5317736 11.8313948,8.0522653 11.8313948,7.46080362 C11.8313948,6.86929441 12.3064007,6.38983363 12.8923087,6.38983363 C13.4782168,6.38983363 13.9532226,6.86929441 13.9532226,7.46080362 C13.9532226,8.0522653 13.4782168,8.5317736 12.8923087,8.5317736 M16.0612583,8.5317736 C15.4753032,8.5317736 15.0003444,8.0522653 15.0003444,7.46080362 C15.0003444,6.86929441 15.4753032,6.38983363 16.0612583,6.38983363 C16.6471664,6.38983363 17.1221723,6.86929441 17.1221723,7.46080362 C17.1221723,8.0522653 16.6471664,8.5317736 16.0612583,8.5317736 M19.2301609,8.5317736 C18.6442528,8.5317736 18.169247,8.0522653 18.169247,7.46080362 C18.169247,6.86929441 18.6442528,6.38983363 19.2301609,6.38983363 C19.816069,6.38983363 20.2910748,6.86929441 20.2910748,7.46080362 C20.2910748,8.0522653 19.816069,8.5317736 19.2301609,8.5317736 M15.9713033,1.99799184 C12.6466858,1.99799184 9.95151818,4.37091882 9.95151818,7.29810057 C9.95151818,8.53723822 10.4346205,9.67701487 11.2438863,10.5795321 L9.77043131,13.116065 L13.8130415,12.2470007 C14.4831147,12.4736635 15.2106161,12.5982093 15.9713033,12.5982093 C19.2959679,12.5982093 21.9911355,10.2252823 21.9911355,7.29810057 C21.9911355,4.37091882 19.2959679,1.99799184 15.9713033,1.99799184 Z M5.03595344,4.38698005 C3.98040574,4.49479932 2.39280062,6.39952738 2.01561083,7.95299934 C2.18926029,9.21138194 2.54931578,10.5267391 3.36018203,12.1656967 C4.13894501,13.7397916 5.51317171,16.25822 7.31123677,17.9897435 C9.78982507,20.3765933 12.7511391,21.8000549 13.151206,22.0020082 C15.3829004,21.9648488 16.8854931,20.650632 17.2935623,19.8161612 C17.4197158,18.827398 15.4350094,16.4276707 13.6935251,15.7377033 C13.5968388,15.699356 13.4981283,15.6810138 13.3983352,15.6810138 C12.76479,15.6810138 12.0849729,16.4208755 11.5507501,17.4877589 C9.65745796,17.365304 8.83783628,16.0889119 7.72142419,14.7638134 C6.60505917,13.4387625 5.73525849,11.5661569 6.01853918,10.6384074 C7.03016848,10.4101289 7.91470277,9.88723633 8.20862177,8.83940781 C8.18630954,7.70932491 6.436164,4.64804621 5.03595344,4.38698005 Z" id="Fill-2"></path>
            </g>
        </g>
    </g>
</svg>