<?xml version="1.0" encoding="UTF-8" standalone="no"?>
<svg width="24px" height="24px" viewBox="0 0 24 24" version="1.1" xmlns="http://www.w3.org/2000/svg" xmlns:xlink="http://www.w3.org/1999/xlink">
    <defs></defs>
    <g id="Page-1" stroke="none" stroke-width="1" fill="none" fill-rule="evenodd">
        <g id="Icons" transform="translate(-109.000000, -231.000000)" fill="#FFFFFF">
            <g id="Health-Plan-icon-2" transform="translate(109.000000, 231.000000)">
                <path d="M3.75,6 L3.75,18.9401167 C3.75,19.4945899 4.19133514,19.9440792 4.75731095,19.9440792 L19.2426891,19.9440792 C19.7990115,19.9440792 20.25,19.4980752 20.25,18.9401167 L20.25,6 L3.75,6 Z M1.75,4.89863214 L1.75,18.9401167 C1.75,20.6010244 3.08861416,21.9440792 4.75731095,21.9440792 L19.2426891,21.9440792 C20.9022342,21.9440792 22.25,20.6040148 22.25,18.9401167 L22.25,4.89863214 C22.25,3.23772449 20.9113858,1.8946697 19.2426891,1.8946697 L4.75731095,1.8946697 C3.09776583,1.8946697 1.75,3.23473408 1.75,4.89863214 Z M9.33645663,16.023452 C10.0417312,17.0235915 11.3854264,17.0657557 12.1365759,16.1015143 L16.951282,9.9209354 C17.2906853,9.48524759 17.2126312,8.85691213 16.7769434,8.51750885 C16.3412556,8.17810558 15.7129202,8.25615961 15.3735169,8.69184741 L10.8486939,14.6494141 L8.93038141,11.9771755 C8.61210085,11.5258265 7.98819281,11.4179532 7.5368438,11.7362337 C7.08549479,12.0545143 6.97762149,12.6784223 7.29590205,13.1297713 L9.33645663,16.023452 Z" id="Path"></path>
            </g>
        </g>
    </g>
</svg>