<?xml version="1.0" encoding="UTF-8" standalone="no"?>
<svg width="24px" height="24px" viewBox="0 0 24 24" version="1.1" xmlns="http://www.w3.org/2000/svg" xmlns:xlink="http://www.w3.org/1999/xlink">
    <defs></defs>
    <g id="Page-1" stroke="none" stroke-width="1" fill="none" fill-rule="evenodd">
        <g id="Icons" transform="translate(-228.000000, -275.000000)" fill="#FFFFFF">
            <g id="Sign-Out-icon-2" transform="translate(228.000000, 275.000000)">
                <path d="M7.14184689,13 L9.69967493,15.3748181 C10.1001084,15.746601 10.1001084,16.34938 9.69967493,16.7211629 C9.29924151,17.0929457 8.65001065,17.0929457 8.24957723,16.7211629 L4.5962914,13.3292658 C3.80013774,12.5900761 3.80083795,11.3796887 4.60079426,10.6369684 L8.21771229,7.27883712 C8.61814572,6.90705429 9.26737657,6.90705429 9.66780999,7.27883713 C10.0682434,7.65061997 10.0682434,8.25339904 9.66780998,8.62518187 C9.66780998,8.62518187 8.17938341,10.0090998 7.11098251,11 L15.0016519,11 C15.5625341,11.0264842 16.0191074,11.472336 16,12 C16.0237665,12.576896 15.5709702,13.0264669 15,13 L7.14184689,13 Z M19,20 C20.1291476,20 21,19.1206791 21,18 L21,6 C21,4.88346546 20.1323004,4 19,4 L14.9781659,4 C14.4379398,4 14,4.44163354 14,5 C14,5.5311987 14.5016923,6 15,6 L19,6 L19,18 L15,18 C14.377425,18 14,18.3773232 14,19 C14,19.6226768 14.4920023,20 14.9781659,20 L19,20 Z" id="Path"></path>
            </g>
        </g>
    </g>
</svg>